{"title":"Week-End in Havana (1941), Walter Lang-DVDRip","uid":10367380,"size":1350428054,"categoryP":"video","categoryS":"movies","magnet":"?xt=urn:btih:da0edc243f882943d8b64c99e383340961e5f603&amp;dn=+Week-End+in+Havana+%281941%29%2C+Walter+Lang-DVDRip&amp;tr=udp%3A%2F%2Ftracker.openbittorrent.com%3A80&amp;tr=udp%3A%2F%2Fopen.demonii.com%3A1337&amp;tr=udp%3A%2F%2Ftracker.coppersurfer.tk%3A6969&amp;tr=udp%3A%2F%2Fexodus.desync.com%3A6969","seeders":1,"leechers":0,"uploader":null,"files":4,"time":1402885459,"description":"Nan Spencer is on a boat bound for Havana which runs aground. The man sent to rescue her is engaged and she doesn't understand his disinterest. Gambler is interested, to the annoyance of his girlfriend.\n\n\nVideo\nID                                       : 1\nFormat                                   : AVC\nFormat/Info                              : Advanced Video Codec\nFormat profile                           : &lt;a class=&quot;__cf_email__&quot; href=&quot;/cdn-cgi/l/email-protection&quot; data-cfemail=&quot;84ccede3ecc4c8b0aab5&quot;&gt;[email&amp;#160;protected]&lt;/a&gt;&lt;script cf-hash='f9e31' type=&quot;text/javascript&quot;&gt;\n/* &lt;![CDATA[ */!function(){try{var t=&quot;currentScript&quot;in document?document.currentScript:function(){for(var t=document.getElementsByTagName(&quot;script&quot;),e=t.length;e--;)if(t[e].getAttribute(&quot;cf-hash&quot;))return t[e]}();if(t&amp;&amp;t.previousSibling){var e,r,n,i,c=t.previousSibling,a=c.getAttribute(&quot;data-cfemail&quot;);if(a){for(e=&quot;&quot;,r=parseInt(a.substr(0,2),16),n=2;a.length-n;n+=2)i=parseInt(a.substr(n,2),16)^r,e+=String.fromCharCode(i);e=document.createTextNode(e),c.parentNode.replaceChild(e,c)}}}catch(u){}}();/* ]]&gt; */&lt;/script&gt;\nFormat settings, CABAC                   : Yes\nFormat settings, ReFrames                : 4 frames\nCodec ID                                 : V_MPEG4/ISO/AVC\nDuration                                 : 1h 20mn\nBit rate                                 : 2 000 Kbps\nWidth                                    : 720 pixels\nHeight                                   : 480 pixels\nDisplay aspect ratio                     : 4:3\nFrame rate                               : 23.976 fps\nStandard                                 : NTSC\nColor space                              : YUV\nChroma subsampling                       : 4:2:0\nBit depth                                : 8 bits\nScan type                                : Progressive\nBits/(Pixel*Frame)                       : 0.241\nStream size                              : 1.12 GiB (89%)\nWriting library                          : x264 core 130 r2273 b3065e6\nEncoding settings                        : cabac=1 / ref=3 / deblock=1:0:0 / analyse=0x3:0x113 / me=hex / subme=7 / psy=1 / psy_rd=1,00:0,00 / mixed_ref=1 / me_range=16 / chroma_me=1 / trellis=1 / 8x8dct=1 / cqm=0 / deadzone=21,11 / fast_pskip=1 / chroma_qp_offset=-2 / threads=6 / lookahead_threads=1 / sliced_threads=0 / nr=0 / decimate=1 / interlaced=0 / bluray_compat=0 / constrained_intra=0 / bframes=3 / b_pyramid=2 / b_adapt=1 / b_bias=0 / direct=1 / weightb=1 / open_gop=0 / weightp=2 / keyint=240 / keyint_min=24 / scenecut=40 / intra_refresh=0 / rc_lookahead=40 / rc=abr / mbtree=1 / bitrate=2000 / ratetol=1,0 / qcomp=0,60 / qpmin=0 / qpmax=69 / qpstep=4 / vbv_maxrate=62500 / vbv_bufsize=78125 / nal_hrd=none / ip_ratio=1,40 / aq=1:1,00\nLanguage                                 : English\nDefault                                  : Yes\nForced                                   : No\nColor primaries                          : BT.601-6 525, BT.1358 525, BT.1700 NTSC, SMPTE 170M\nTransfer characteristics                 : BT.709-5, BT.1361\nMatrix coefficients                      : BT.601-6 525, BT.1358 525, BT.1700 NTSC, SMPTE 170M\n\nAudio\nID                                       : 2\nFormat                                   : AC-3\nFormat/Info                              : Audio Coding 3\nMode extension                           : CM (complete main)\nCodec ID                                 : A_AC3\nDuration                                 : 1h 20mn\nBit rate mode                            : Constant\nBit rate                                 : 192 Kbps\nChannel(s)                               : 2 channels\nChannel positions                        : Front: L R\nSampling rate                            : 48.0 KHz\nBit depth                                : 16 bits\nCompression mode                         : Lossy\nStream size                              : 111 MiB (9%)\nLanguage                                 : English\nDefault                                  : Yes\nForced                                   : No\n\nText #1\nID                                       : 3\nFormat                                   : VobSub\nCodec ID                                 : S_VOBSUB\nCodec ID/Info                            : The same subtitle format used on DVDs\nLanguage                                 : English\nDefault                                  : No\nForced                                   : No\n\nText #2\nID                                       : 4\nFormat                                   : VobSub\nCodec ID                                 : S_VOBSUB\nCodec ID/Info                            : The same subtitle format used on DVDs\nLanguage                                 : Spanish\nDefault                                  : No\nForced                                   : No\n\nText #3\nID                                       : 5\nFormat                                   : VobSub\nCodec ID                                 : S_VOBSUB\nCodec ID/Info                            : The same subtitle format used on DVDs\nLanguage                                 : Russian\nDefault                                  : No\nForced                                   : No","torrent":{"xt":"urn:btih:da0edc243f882943d8b64c99e383340961e5f603","amp;dn":"+Week-End+in+Havana+%281941%29%2C+Walter+Lang-DVDRip","amp;tr":["udp%3A%2F%2Ftracker.openbittorrent.com%3A80","udp%3A%2F%2Fopen.demonii.com%3A1337","udp%3A%2F%2Ftracker.coppersurfer.tk%3A6969","udp%3A%2F%2Fexodus.desync.com%3A6969"],"infoHash":"da0edc243f882943d8b64c99e383340961e5f603","infoHashBuffer":{"type":"Buffer","data":[218,14,220,36,63,136,41,67,216,182,76,153,227,131,52,9,97,229,246,3]},"announce":[],"urlList":[]}}